<mxfile>
    <diagram id="V3vRzwqk_VqXlD4Towf4" name="第 1 页">
        <mxGraphModel dx="754" dy="610" grid="1" gridSize="10" guides="1" tooltips="1" connect="1" arrows="1" fold="1" page="1" pageScale="1" pageWidth="827" pageHeight="1169" math="0" shadow="0">
            <root>
                <mxCell id="0"/>
                <mxCell id="1" parent="0"/>
                <mxCell id="10" value="Component" style="swimlane;fontStyle=1;align=center;verticalAlign=top;childLayout=stackLayout;horizontal=1;startSize=26;horizontalStack=0;resizeParent=1;resizeParentMax=0;resizeLast=0;collapsible=1;marginBottom=0;fontSize=16;" parent="1" vertex="1">
                    <mxGeometry x="200" y="80" width="200" height="80" as="geometry">
                        <mxRectangle x="80" y="120" width="140" height="26" as="alternateBounds"/>
                    </mxGeometry>
                </mxCell>
                <mxCell id="12" value="" style="line;strokeWidth=1;fillColor=none;align=left;verticalAlign=middle;spacingTop=-1;spacingLeft=3;spacingRight=3;rotatable=0;labelPosition=right;points=[];portConstraint=eastwest;" parent="10" vertex="1">
                    <mxGeometry y="26" width="200" height="8" as="geometry"/>
                </mxCell>
                <mxCell id="13" value="Operation()" style="text;strokeColor=none;fillColor=none;align=left;verticalAlign=top;spacingLeft=4;spacingRight=4;overflow=hidden;rotatable=0;points=[[0,0.5],[1,0.5]];portConstraint=eastwest;fontSize=16;" parent="10" vertex="1">
                    <mxGeometry y="34" width="200" height="46" as="geometry"/>
                </mxCell>
                <mxCell id="75" value="ConcreateCmponent" style="swimlane;fontStyle=1;align=center;verticalAlign=top;childLayout=stackLayout;horizontal=1;startSize=26;horizontalStack=0;resizeParent=1;resizeParentMax=0;resizeLast=0;collapsible=1;marginBottom=0;fontSize=16;" parent="1" vertex="1">
                    <mxGeometry x="40" y="240" width="200" height="80" as="geometry">
                        <mxRectangle x="80" y="120" width="140" height="26" as="alternateBounds"/>
                    </mxGeometry>
                </mxCell>
                <mxCell id="76" value="" style="line;strokeWidth=1;fillColor=none;align=left;verticalAlign=middle;spacingTop=-1;spacingLeft=3;spacingRight=3;rotatable=0;labelPosition=right;points=[];portConstraint=eastwest;" parent="75" vertex="1">
                    <mxGeometry y="26" width="200" height="8" as="geometry"/>
                </mxCell>
                <mxCell id="77" value="Operation()" style="text;strokeColor=none;fillColor=none;align=left;verticalAlign=top;spacingLeft=4;spacingRight=4;overflow=hidden;rotatable=0;points=[[0,0.5],[1,0.5]];portConstraint=eastwest;fontSize=16;" parent="75" vertex="1">
                    <mxGeometry y="34" width="200" height="46" as="geometry"/>
                </mxCell>
                <mxCell id="78" value="Decorator" style="swimlane;fontStyle=1;align=center;verticalAlign=top;childLayout=stackLayout;horizontal=1;startSize=26;horizontalStack=0;resizeParent=1;resizeParentMax=0;resizeLast=0;collapsible=1;marginBottom=0;fontSize=16;" parent="1" vertex="1">
                    <mxGeometry x="360" y="240" width="160" height="80" as="geometry">
                        <mxRectangle x="80" y="120" width="140" height="26" as="alternateBounds"/>
                    </mxGeometry>
                </mxCell>
                <mxCell id="79" value="" style="line;strokeWidth=1;fillColor=none;align=left;verticalAlign=middle;spacingTop=-1;spacingLeft=3;spacingRight=3;rotatable=0;labelPosition=right;points=[];portConstraint=eastwest;" parent="78" vertex="1">
                    <mxGeometry y="26" width="160" height="8" as="geometry"/>
                </mxCell>
                <mxCell id="80" value="Operation()" style="text;strokeColor=none;fillColor=none;align=left;verticalAlign=top;spacingLeft=4;spacingRight=4;overflow=hidden;rotatable=0;points=[[0,0.5],[1,0.5]];portConstraint=eastwest;fontSize=16;" parent="78" vertex="1">
                    <mxGeometry y="34" width="160" height="46" as="geometry"/>
                </mxCell>
                <mxCell id="81" value="ConcreteDecoratorA" style="swimlane;fontStyle=1;align=center;verticalAlign=top;childLayout=stackLayout;horizontal=1;startSize=26;horizontalStack=0;resizeParent=1;resizeParentMax=0;resizeLast=0;collapsible=1;marginBottom=0;fontSize=16;" parent="1" vertex="1">
                    <mxGeometry x="200" y="400" width="200" height="80" as="geometry">
                        <mxRectangle x="80" y="120" width="140" height="26" as="alternateBounds"/>
                    </mxGeometry>
                </mxCell>
                <mxCell id="82" value="" style="line;strokeWidth=1;fillColor=none;align=left;verticalAlign=middle;spacingTop=-1;spacingLeft=3;spacingRight=3;rotatable=0;labelPosition=right;points=[];portConstraint=eastwest;" parent="81" vertex="1">
                    <mxGeometry y="26" width="200" height="8" as="geometry"/>
                </mxCell>
                <mxCell id="83" value="Operation()&#10;AddOperator()" style="text;strokeColor=none;fillColor=none;align=left;verticalAlign=top;spacingLeft=4;spacingRight=4;overflow=hidden;rotatable=0;points=[[0,0.5],[1,0.5]];portConstraint=eastwest;fontSize=16;" parent="81" vertex="1">
                    <mxGeometry y="34" width="200" height="46" as="geometry"/>
                </mxCell>
                <mxCell id="84" value="ConcreteDecoratorB" style="swimlane;fontStyle=1;align=center;verticalAlign=top;childLayout=stackLayout;horizontal=1;startSize=26;horizontalStack=0;resizeParent=1;resizeParentMax=0;resizeLast=0;collapsible=1;marginBottom=0;fontSize=16;" parent="1" vertex="1">
                    <mxGeometry x="520" y="400" width="200" height="80" as="geometry">
                        <mxRectangle x="80" y="120" width="140" height="26" as="alternateBounds"/>
                    </mxGeometry>
                </mxCell>
                <mxCell id="85" value="" style="line;strokeWidth=1;fillColor=none;align=left;verticalAlign=middle;spacingTop=-1;spacingLeft=3;spacingRight=3;rotatable=0;labelPosition=right;points=[];portConstraint=eastwest;" parent="84" vertex="1">
                    <mxGeometry y="26" width="200" height="8" as="geometry"/>
                </mxCell>
                <mxCell id="86" value="Operation()&#10;AddOperator()" style="text;strokeColor=none;fillColor=none;align=left;verticalAlign=top;spacingLeft=4;spacingRight=4;overflow=hidden;rotatable=0;points=[[0,0.5],[1,0.5]];portConstraint=eastwest;fontSize=16;" parent="84" vertex="1">
                    <mxGeometry y="34" width="200" height="46" as="geometry"/>
                </mxCell>
                <mxCell id="87" value="1" style="endArrow=block;html=1;endSize=12;startArrow=diamondThin;startSize=14;startFill=0;edgeStyle=orthogonalEdgeStyle;align=left;verticalAlign=bottom;entryX=1;entryY=0.25;entryDx=0;entryDy=0;endFill=1;" parent="1" target="10" edge="1">
                    <mxGeometry x="-1" y="3" relative="1" as="geometry">
                        <mxPoint x="520" y="260" as="sourcePoint"/>
                        <mxPoint x="680" y="260" as="targetPoint"/>
                        <Array as="points">
                            <mxPoint x="600" y="260"/>
                            <mxPoint x="600" y="100"/>
                        </Array>
                    </mxGeometry>
                </mxCell>
                <mxCell id="88" value="component" style="text;html=1;align=center;verticalAlign=middle;resizable=0;points=[];autosize=1;" parent="1" vertex="1">
                    <mxGeometry x="530" y="220" width="80" height="20" as="geometry"/>
                </mxCell>
                <mxCell id="91" value="" style="endArrow=none;html=1;entryX=0.5;entryY=0;entryDx=0;entryDy=0;exitX=0.593;exitY=-0.006;exitDx=0;exitDy=0;exitPerimeter=0;" parent="1" source="75" target="78" edge="1">
                    <mxGeometry width="50" height="50" relative="1" as="geometry">
                        <mxPoint x="160" y="200" as="sourcePoint"/>
                        <mxPoint x="390" y="180" as="targetPoint"/>
                        <Array as="points">
                            <mxPoint x="159" y="200"/>
                            <mxPoint x="440" y="200"/>
                            <mxPoint x="440" y="210"/>
                        </Array>
                    </mxGeometry>
                </mxCell>
                <mxCell id="92" value="" style="endArrow=none;html=1;entryX=0.593;entryY=0.019;entryDx=0;entryDy=0;exitX=0.593;exitY=-0.006;exitDx=0;exitDy=0;exitPerimeter=0;entryPerimeter=0;" parent="1" target="84" edge="1">
                    <mxGeometry width="50" height="50" relative="1" as="geometry">
                        <mxPoint x="280" y="399.52" as="sourcePoint"/>
                        <mxPoint x="561.4" y="400" as="targetPoint"/>
                        <Array as="points">
                            <mxPoint x="280.4" y="360"/>
                            <mxPoint x="421.4" y="360"/>
                            <mxPoint x="561.4" y="360"/>
                            <mxPoint x="640" y="360"/>
                        </Array>
                    </mxGeometry>
                </mxCell>
                <mxCell id="94" value="" style="endArrow=block;html=1;endFill=0;endSize=11;" parent="1" edge="1">
                    <mxGeometry width="50" height="50" relative="1" as="geometry">
                        <mxPoint x="300" y="200" as="sourcePoint"/>
                        <mxPoint x="300" y="160" as="targetPoint"/>
                    </mxGeometry>
                </mxCell>
                <mxCell id="96" value="" style="endArrow=block;html=1;endFill=0;endSize=11;entryX=0.503;entryY=0.978;entryDx=0;entryDy=0;entryPerimeter=0;" parent="1" target="80" edge="1">
                    <mxGeometry width="50" height="50" relative="1" as="geometry">
                        <mxPoint x="440" y="360" as="sourcePoint"/>
                        <mxPoint x="320" y="300" as="targetPoint"/>
                    </mxGeometry>
                </mxCell>
                <mxCell id="97" value="" style="shape=stencil(lZ3dshy3DYSfRrdbw3/y2nHew1WWI1UUyyUrf28fIqqZndOY83HnTvZB7w45JNhogNgP6ac/P/3yx8cPcfvz+7evf//478+/fv/0If3lQ4yff//08dvn7/NfH9LPH9JPv3399vFv377+8/dff/z3H7+Ypf3rH1//ZZ/wnx+47TGygeL23x//Iz629P//8dcf5l8+/87mud4wT/fM8yPeM6/bDfPyiO2W+eCHiW/M66MGNN/emLfHhg/Th5jzRPYm5h1npr8dan+EQuZtiHkeaK6f3iOZ17fPPh4Bh1qjmBec96Kf3nGo+e1Qw/aIOJN5U/uCc5Oi2g/cf7G8tQ+LLRK62peO9kntOz7PJp8//QeOd0tqn/D5t6j2NaP9pvYd95Xap31EL9vHm/a8V7x9uzXevM/Yy/bsBL194fXg7Nut+SmL88fbx1vzWRbr39v3W/NfF37c2yf0J96+oL/y9uzfdD+2R+TxNrWv7E9k/86jBT8/NLWvuJ6jfP48LdD9x6b2t/zzcwbes29qz/sldbUf+DxZnic8Mo43Z7VnJpDfni+T4EX+/Kb2Fccr5+lkhDyfZVP7jOutRLUfuH6KzE9e+BNvX3F/qX3Zd+jL9unW85dHvfX89RFuPU9d7Be1bws+4O2Zw6t9X+x3b8+0XO3Hwl95+1vrIW33nj+t+KTah8V56u3zrecPj3Hr+ePuIV+2Z3+l9une/p327dZ482o9FLW/FY5M+87+7a3/TGURj9RN7Qv6E4mmpv0iWJP5mfwH51OCu2nP8Uvb1D7j/Leo9nwetaL2DddPd88zcLxdPn/lD1Uwafh+5+529nRehH31nuzpPD2iy5M9xV/hkYba0/4Nel5P+4HPU+V5mE+GffWe7Clem96sqT2tt6jx8rSn8yvu336yb/C+4iO7z6d4JO7Rzcme9IT4aPL5A/lJ3L39yZ7Or7T/9WQf4XnSIxW1p/WcnH8b+wp8x16EsWlP6z9rPDLtKf7KylenPcUvWZU3s4fnL48w1L7B/Be3v8b+xt+x1/0y7cE/V+dPBsb7dZctX7Zvt+zbzmZftr/3PG1Xw0725N+66nVmD/PfL/Yjxe9jj9bP9sCv5ujceu6w3oILgCeAAqrgtGQDkIcOKpkaAJbcBIx+CxAvNgECkqooa0B2r3kB6G4fIyA/knOkC0C7Bygq5a4BetYvATcf6eCSrwNurqW67/ZXAQcdex2gDHmgwhP6ThB3QN4eG7j4CZDlnTeM+cLYP+8MIFI0VLXJh653zRKcDJkPYe89gOhI+VD23gMMN2gK/IyZZgUkYkZBQ4l8iHXXgKhcJx9q3XsAP2gKvj37yse8XQPSxaAp/TABct7mIwK+BmRNMBkA9oPpZW5aSZExwaw4AM1SuVitjThtuVhLJArEqlFR3jBqNNHMvWmk8fXiTXea1rbT6hMAiX/TSMEANOi2//kMoP3Q9/11AALHFl2DOwPQBhrOzQRUH+JQNjMBFL6YmpcVQHr4BOgshZ0CXgckmzK4fHiq9wC6lgKGMBOgaynsKsw1wAX9EzDgxU1AlTcdsYAgRXcCcRrYVMOuANJBJ0AdWcQdl5JGejmhsjABeuwmdPcTIFrQBOB7yMo1MiczTGuUb8h4ik6Aer6M7j4d2dYTAKe1uA1UkAmko8rmBCAFJnlnXFBSmYAiq7WimzFJsCiAuMZTEzwBSHU1UbArgE6g5GhobkgSDdAVQMKr6YhNAXSwm5AYFUBStgHkGzq7yuZ2XEcx0gDyHgYS3eQPxbEatOhPZcMTyABRASQoXQAOzfd1wGLxeQCFNBeAyKLbFYBUkAtAYkd2BcDz4QpAMsUFgIsTLwEkDRsgKYAYmQHeLu/CxTDpqNU4ARYbSGKgUlduRvSlcoTk7wG6+wai0pYfkB3XWFHuShJLQ0nWMgrySB3j6eREvgmgsGwCxLdOAKlwEyCychmYxkjdLb7BXKMrX6qsCaSuClblWDQ51aFuPOih8XQNGLEbYCgAmcBQNlMjZzOGvrga2bcOPeMmAH3rcd4cgIQJc8sXBAVQpGgA+YbMAceRkTgBSCM3Cf0t56sLvzRUhZsAdALj0WXQXEb3VN1PANLtDSBjaKvF16sCKHNuABl051TXcDuuY27gAjBQwboEUHWHBzTWly4ACzZzBcCD3QMWsegVgOSiC0DCGtpLANIfD8h8il4BkDp4QME6lQvAZALsZjzg5ovjUolLAJJ1D+gc+F0BUGq5ApBGdgEYdzfQ2EsWXgT0o6byVQCXkF0CqMb6ArA8dj0AeasHpL1Q43UAqdIXgHxztfbMgZ8HlJWrFJ1vAhaMbCQFLMiJaDO9ouSVXXn5BBA5MYAMmuuZsrvgMgFETixNJGPoO218D5AcgJZ3djXUfaCbeWZMTgAq6rYESFcAsRlLT7z9hsH5uGe24QQgYfCZCzgBSP15Cu8HgIXyp45+ApATyK6wYAIo8zoBIgyOiJzPdPSigErLOyjRHQlTIia8RwUQ0c1Rs2UjoepgSv1QAL64qDmUkZFgTYDshwnINK1Ri1wngC6ZTEBz30BizgTotLIqbbkAByBGll3mdQIoa2m5APcNlMCzXIBs0YpnXM6aj5sACvwmoDkAFr+VfSGcAFRtNgE66Movrmq95Wi8+KoGrxOQyLc2vVE0AZR/yE7yGo3PB5cXnQAKOCZAJC8DkCM7ahpPANrTT9H6BKD4ofhbtx0dWQmaXjMATGtx5RcGgC1aXGnt6MjInhr0CUA0tCR3oHDxcckqPU4AVXNPQPMAeg9F62UngM4H02+zA9AYqoo5BqBpbW7xdXT3peudvMFRVhla5DkBdMmuDOfuOzqyujmv0fes+zUgqEA7uA68xv01nQFAEmvSStvBya+a9er06EhOJkAPlI61yLU4ztexGLm2i/2AgK6a8QrgROYFoG13AeFqDLD4WnDeu2NJtclPbvFhTXJyvJWFwZa1WGgCqLDA1CQ3BqLSpibJnh4oFzWXxZ8AYjMTMNw3EIVrzcVAA3OKrWtudwIoHDDppiiASGLfnPdm9acHrQIefH25xwsAUemetNBmHCXj1wBXczIGhvi9OFY5kGuYZOABNAaXIgzbhuxkRvRy7WqJcGLLYhQWDjsAcTKLbqMDwHod/kgZmP6aAN3VXO0wI8Ps9hwlFGYYtvldTbOUNQdurgz23AySovPfJG9OgMaKzPpmRKL0pOGVwgnQBjYNq6Xnn5WTVTzaR3MheOUxNFWYBrfBGN5ZltUYREu0V0lrqWvJ0+BaNXtN8kiJr8Z0rawc3HvFiG1QAA66O2cZ0Vk+mfAJQNx4dK1lHhELMGz1y6ADMtfRNX88AdRvyQBO6aMjZbjSAhMf+T2Iw+98yW24ALnzLcPRlbnOE4BCcGMvSQE4BhejzFMJ98NQ7WQCiDEZe5Fv4KvRBpBvKLxahx4ovWBNyPM0OAAZ1XujO6J8J5SZx1C2MRkOLo2hB8rkUERPnmfmAeCOLGPolfAJwA00XHM25pXD5Wna4owbyo0bd9V4EqoDUHE/nOjRgSg7wXkZkbG44BpBW+IKkfBdXCEiNkC6Qiwcpn8bG8pGw8kVlWOhMbSyvLL0ZYtcAEtnI9uoVuTHfmc/5YV3vZOUwyS8dDCGEggrreJzSE6Jyr3qnvLHAQirY0VOa6uJ44NLBm1lejToroS6dPbhTZ1NaVgvMNx9xQlYcEstZqx8NDbtIWZlq0yoRYIsGUN9y2vINyRe3lW1ssJtbYZLXJQNRZ3hUiNWWU5OICvNyizUDifqZG7lNsmtJCMtu0IbKGkmPBd+09E1aOVugxMg7HVxp2YC9NZOxLqNEZRb5sAX5l1SeHEDzNLY7u4rlWEM1wp20YNgbErZE7dInQBJRiYuYZgAcTOLtixG0F3fFwpsuqtztUszLLgkByC624cm8hK3Ouuu3jgVvITTndg8AeTuvcyUmFAbQL4hc/sIV5Wd+NLBJSDRoK8AdIoaQFpOJNSxDFAVgKpody0nuNqrd9flJKKGb4CgAEqzWTgpsxTwnlzvrjFHYO3YRdVpw9S5AVwrOeoh3R39SUsVVQ7FyHpid2JFHLxFu2tPyTmt3tXzWUcWXnzivWPDBry9K3WIfB+luxsv1imc5Wzh3tZ1h7aou4lnTSFpWt1tQrt0T6J/1VRh5HujvaroPwFUVDoBvvEn5XgnQKi0dRblRxJJx5pnLRIXVQE4hqKZ8Bgwbp8AkTgjX+Lv2a2ljb13dv3MuR/UBIiOFTgW7Un1k8DJ+Z6UrIcF13DdeUJDgtWj3ngJfFm2R+UaoWJyfgI2B0AnENQZW59pWnxBG/laI2ta3kHXknXKJoBr3BQyCl/d9cZ89hx6DyBuJnAhYHO6xgQQ0Z0A8RqBRYTmRIQJoOROc+p3SLjjJkAS24sO8821GAsRaWhrWk82AVQ/06qymQmgsiRLzsueDpi7tPT/UAD5VpMCmwLodu0EiDa9+OEEK5LoCqDUeYtuljbcQM2X3vLaCy5fi0VJbXNlHhiI1qHnFV8y9bUzHSeoupXd8ZVVd32/oX+pLu/fuBVhVY/X8OCpx42npz3V2tWswVhDglGzZmn5ZnNNGgJU3DM1aWK6YjK+RnfLElW06gq9+XZIDRq3FW7tGJTMF66AC0rYCsYvVsSn9pSMqu63BAoeNsVdQuXW7sVdHs545JeuPjFjOUfxfeBw/ZSuOmxGQcWuzUvTHryDbrqxyIVcLVu1PWBGllZcyVhC/1aKi8nxXC3Ftb5EabG4IrmEbH/aSzVNwv1r1cRqH2m8yfVK5uLj5HoTI9O3+mn9fKzoji4cwkzEtJeymMhF7EFrDiP6W+ujIr9FgS0Simu8FVFELe63UiLKWJYQkIAUb/5nV8QQcT9mV60S0b/5iw2cLpv2cpMoYByXqyOJuH9zcRwRU1/TXn8riy9nZV2fga+8JdXHwupaU1d7vH7j+GTA/Zt9xIdimt2EfDteLnRIToHfuCtcVxlq47YRTfnAhuXnpv87e3qeosVXG195z3peczI3OT62cT+HqLHntuoUKOfXhum66IJhLjsw+q7zQ/s9OhGQW189f5nmZE/tILN/v9gNMmkp6OJ5ovp//mmn53Y6zSc9j7uazHVBwXWj2VBDCl35A2t/oenlItb/g6uw3/C8C06B5f0bXPy1YW7L1KUs9thIOe1/PvlDmp/kzwviV76tOGdsQlANnPuyBfdbIAH5p8kTIlhwTaOW0vFx6kvkF43vk346Jf2axqacLmtOVEPzqp5zZZ7cw1Ag5dcZxiFaYMOlJsX9Yh1fC3Z3H5iEeU5LKQ3XkTSiy0za4iiix0xaExC5A6vuV+azrnl2RPcaXdYNM74uZRDRGbte4dxBMfhnp1A9aCTNkUdwaVgUDtxv/ETUbVw34YgX4YPetOeobNNDKqJI4n4YOaKmuPx17PmP5y9r//b5y5cfP8x9/rv+Evf8Xz9+xTv9/D8=);fillColor=none;strokeColor=#FF0000;" vertex="1" parent="1">
                    <mxGeometry x="187.5" y="65.5" width="373.5" height="271.5" as="geometry"/>
                </mxCell>
                <mxCell id="98" value="" style="shape=stencil(lZ3Zjh1HkkS/hq8XmbHHc8/0fwgQ1RRaIwoUe6b77ycCxGWJZlnHb75xcavK2DzMl3D/kP/256ef/vj4IR1/fv3y+Z8f/+/Xn79++pD/60NKv/7+6eOXX7+uP33I//0h/+2Xz18+/uPL53/9/vO3v//x05bcf/qfz/+7f8K/v+HSo6UNSsd/vv3D8fyHv38T/+3X338Q7+OGeH6kckt8nire3xcvj3yIeD9J3H56b++L10ftIj6O98WbD3UUEh86kWO+L94fRX/6zCQ+dVXneF98+ESyeNOJZPF556fPx6nzzuJ53hK/9e3zMdoN8fN4nHcmfsmXm/L9zlwu+VnvyJ+PdGd6lny5M/tLftz6/nRvMyz5emu90mPe+vn5UW59f36MWz9/qTRVC4H8uDX/9dF+lD8fByi1s+n+XPKgwM+u+3/JgxZc8r2rPGj8c1x8D6jNcz5/3Jv8CVfEkrf5OUHPrunO+j0n3Clv99/L8nJnBfLrv8c9+VLvyYv+CeXvfX96Ls/L8unWeNOj5Hvy7eb3dNs/LD9vfX9WfRjK51vfkx/1pny/+f3Tfj7oq8XZkq5XAn215Iv+/ER0tvj3J9BXixQeJg/6asnnpvKgr5Z80/MYyM9b8u1iPun726Pq/sf5aa7PA3nbDyjflZ+E8nbeA/l2a376Y6h8hvtlceFDvz/TeRl+3gvt/8Xk9XsK7f91n9rPp/kZrh8K7bfxtMje5Cvdp8Pns/F4bf83+v7p57fT98yn+niTJ6tuWyP684mPLfn6o12XmG/M5+e+yeP+nGoIJtw/2eyX9FQA78ln/R408A8fb4P9s+S7ypPNnr+bxW/yZLTndf0cKk/fv9RBVXnYD/lUeyE9DYL35MV+SU8C9Z688NUlT/NzPof3lM/I/5f8LCpP358eRxN52s9LXvhqxvs6G9/Lzw34nnxWedJvS170YX4uyHvyVcdLHqsl33Q+cb8l3f+Z1/f7dnzKl2j+5bwUvL9yfppzb/KoH4yvFtS3S148UQX155KX+73i/Z6zrlfF+2jJtyHyuF5Z/RsN7dMlP1We+EAuz+P6Jo/6tuh911iflCd9f8p35OfZ+Hl/HqD35GV9O7pst3wVedwPi///yDcG7+ei533w+S3Khyf6Q7Z8F3niY0te+Ofk+6Xo/jwPNAByUQKxXYo8o2rRMsVdAFFB58lnxnxYZ4oOgVxKZ3BLFrOyM2/T+lzV74CCfqwNaAogIroA6ihrfLNW8+x0pN4LoKbewBDDBgiXOPhyrUb+TmZbC/DjadjXNy1cNfpUeC9V9Q9uhRr8BgPgDeuAjibKBWDwHXUFuDnoySz/CoC01ACb+N+a1syxuQsAe2ovAcF5cEBwHhSQWLdeAfB2dkBAx68AmbT3FQDVvQMKetwuAffOw5u2fR1wc6UrswYHtOh+cMA9rZFD7S3ENgfMZwHEEhlMzRdATKMZ3XE1KQDJ8wL8SN7KEf2Gdigg+A3iLi0cn1oAiV8UdnhtgP0G5BpV+VJJkaocVQHIQavGVEqoNYT+LAAqsmZW3rKbaPM1DduUzBfKAsgsFQwcLEDqCkAm3dRyWAB0NTVNsVgAPNPtuTe/AwLjs2nwbwHQu9Ae3QBoDrTHkHVobP8320uNp7WrA3sB8GK3iHDpvFvNxb8A5OPcgKEA1HxdgzILgF4Jy75ZANwa3bbGYDva4g5lROugW2Mw1+imlwJW2TVDqQS2btdcijLZmTfUaCoBb12TWBWAemmoDVQmr/TQeH4JmPFQC6UevL2HRigXADXfeA7xLwC8UNZGaApANjM0aLcAaLxaRtcC4F6aak9XzjtZAPFDVQ78LkA+FYAHaKrnZwHwAE3lGjXwa0zN/akJD9BmR1MBdICKRV8qh3c2nWoKILK+AN0+iQIw5VTqUNk3U05buIwksZx6iy4A6dZiOSiV6c/iX8kAZGWVpF7Byv6lkjQMswB0ZZXvYZS/Amgdsl5ZlSncAuhKZ94aRTlfDFBffQjoNgY6oosdHdUAtJcsPaNy/GYBug+a9lLTO24B6AYqlnFX2WLf/MsWjvTS4i4Sk6lM1jedGgagQQ+NUtTMSmBcbA3Kb97cxaaVGNmmIjZLAaD7GChd/NBUwxgguXe14KW4L9lsANje1bJ5NwAWbgEkvaNy/HABZjMA7NZ1G+SiADKa9n2TFED0Z98GDqBPyqa92bTc62q/gbT3/gCbJdJ86799pfGtQtW4Wi144hZAOV/lvbQM8KYAYmQLIKl1+yNpHbpy78rB2WoWygKQuq/DVprDuXXR0KIA0ksLoAvHAeB2mG5tSE7aqTGUBSBPYkuawrRXBsbQsubErIkm3roA4l/aSwmbr1mIsHZc6VZNCXQ8D61p3HUBaOFaV3fR2iy4cMPU/UCyvgB6oQxe6al+jcrB7AUQ708dGMDrx9VvgGldAE2HGHim+2n0Z6CFsgDFxhAAlCQGgGQkMRhDutgaOEuW5BOtQzJ7mle6Z9NLvJcWwMdATrUF0APEUctumS/BeejF1EwIUGYcAvQGCgAWY48B4raLAM3ISQhot9RM7+ryigHKBAKA+chigDpCgr00r1aaduu0G4jPwzg0NBWcuHGatctaY1hm5tZLMOiRNLW0cgBv2FvcOtDEH/lC3ZM9Pex1xwbQtBYjiQPv6eEmPnulR9XA0QbQtFpMsQ60dscibHaAyNodzTyJA7n3Aqj9MJCcjG6cLwQowQoA42JrBABnAgiwzPsYUGwvBQB1qjFgHhe3aABQp1oIuDdL0/LXI4A9+IsBrlsDgPq9Q4CzGQQkDevEgIsxgJpZgIt1oGffSVMMl2VHvpmZn8bwXwGglxZAt/dEg2Nmzdzc1imNwXKFF4Bu0QWQGHudeMctQLVPIlt0AdRCmegImZYmWTmANy3RpnIG7XTTcvLWqPpkrR2YuTnNc7IA5DlZAEm0aZyIuQDdfgPFHxZAQrWNC3PMrke0cfGMac6cduCluAA6aH4KPrueh8Zv9aYVxWic+zOHcr7Gr8um1dFo/FxsWjC4JdYaFtttnJO4AJJdtADkapnTXhjwE6oF0K2R0V00za/RMpoD0x7VNQ6vTYvtNo7STHuG19h3vwBi+DV2Y08rLNDYBTztpV/jdKQNkFmq6AiZ5i5aACK6GyArzclCC6CvWxrr1qn0p3EqzwbIJ7HbbgO6AvBMm2m5/XIBYCqAlMB5HHrk+oGK6QoR1Nm4RFCk8wqR8Ba6RhCPu0JwHPwKwSGtawSdvCtEvf07KpriVwh+/3GNIE1+heDUu2sEadprBN3zVwj2pPgJ7GyQ+xnvEx22G1AUgPf21JSSwTlZ03KBRsCfplrwgysXbPU/FUCJmRvwo+ocie2JqUx58POGfef9uHCDXw9vQFNAcNHLNbwAwcJJgHu7rHgMwgwWgBJvNuBUAPmbnKyMGq2DJEssAPLYqTmKo0Z0SKIFozJ5n8r2R8OkxmnpGNuLxmRFbNPBL1/n1Hp8CxBsjSRj6MzFp5r8CxAcUUm8GT1aOMmCXICArIhH680T+C5A9tKIBi020WBf/gYcCggGLY7CETI0icQOdglvgExr4KuZGjIck62uqVmQY0Y81gHo57gCBOaBALb7k9WMA4Ij6oBo4QwQXOwK4PJvl4B7Czf5VeElINCtEl6Y/AxxWu70TPgycgNOBSA5GWqxbAcrOxWEYE1+srQBRQGBY0Qsxxk4FczP8eaRfRdgvwFp6NBQ1QKgJ2Vo6Ha7cHkdhJxMTpvcABlD4a1h5RO3z5dXWpjALMzIht7Tkx/Cz6EBjO0k5oU7bdDoVOhqP2yvMvsuhwHwAFkIfQaMrGtMZVb2BnWrO1FD/6v9hsD/KkxgNt5LTU2ayZlr261dFYDuo6Z8af1LEC2Q7OzZMHd6WsLH9ozTmS5aD3LNG95AxZRxZ4PDKjZOTqabVnJyAzi2JUR38lvkaUU/93akzXcqM94bngZtZb4m14WZh9oPG0C5D5aYOZkZj6k5u5MdG5t0DgPQJw1NdZsD3TOjq3d0A2Bat3mRDECDtuegMeBiDJyOoVojBIjzPwIUW4cQkO99khV1jgF6pgNA0pI4MeDmOljifgzQG2igM2dYab3JrvlxaIjkLQD3HiDbb6DXCturZ1uDSGK3HJQZJKKNi2nF1M+hj0BmkL56pQSIkXV77bxpI32S1XDdTJY+yZIaJ1fR6vVit5LR1MvF1qD7oVud4Q2gJN+saZOT08S6VZKenLSy4y0yaE4p6X4pTjxxO850KIDOQxu2lyaehx1cqwagT+qarrddhfRJzZQx56A0a9MxucRaK7a9Jx6g5hSOnTnN8iw3gF4rpIsx0Ilr9qR1A2gMp6nKiSdup3fY1qATtwC+0vhkyTpxzImGXzUv3OQozU6HtQNErpZq1ZnfAtLXgG73A3vhqhtNnG1UvWD3wQUGqlXdCRFesS9GaJn+CGGNM0JEslYMEeJUt9QLCEnNChGHHtUIUSxW+AIi3/wdQ1ObXkDUe+tRLBsqRFiG1guIuyPv6n8NEU2v1RcQ2iQjRtydq3r7q6oWTggRRR9Nv4DQcuYRIivFfgFxUzMUK1r8AqLc/KpkjWMihD34eAGhxfojxGHtEmJEu7mvDvXgRog8rYBrjLipfbLFHUPE0KTYFxDaLCJGaBXXCGEvM15A3LzPvSDWCwitdxshLOX4BUS9ObtNnXwvILQMb4SomgT5AqLenN1qTaJihLapiBBWMeAFxE0ms4tx3xyHlR8PEeZbewHRbq55vnufZ3vdESKSNSaJEVbKO0TcZEu7PYNZpkG/iO4GDjekKG5zcceL0626BIDDfKOTS9oeVlM9KAJ3mMuZjeV8WBhpRm1o1E0YAtxpEQA0lhwC1EcdAi4GDQuXPGuAvRzJ6tJNLve3uxPZtJLjJQ3zjbJrJ1kFwsB5lPrFSmMHp65p/IHHbJcfN6dFop5M3VzOXKcxdYvpT+7y1i/UDAUXds118+STXtp9xgxAaibZI93JL5O9U9rkNLTd6cM+CfdSNd3Krv/dq8Tc5kH3OV24wQtnfQ+CCKP3z9thVfqkYkkAHOndDWksNIwtxMw3NTv3WLMeLDsXggGa2MNZA8neek4umut9s2fjvmzWl2cnT5CqTJYvxZWNUrJBcxJxMps7SIpJyWL6nKfjzUJnQf/ubsaWFIA30Kk58guAytj6d+0EEDpAp+XpcAXCZIUoJvfQSM6XuCKn96id3ARutwmxdEAK3CbrMhckTZ7WhnvyW88F0IgKt2M/LSF9Bm+w7J3kYE/+afWfBpOTcyiVHpObF4+LZG586dS1YsLgiPvZ7a0CNz85LatscL7UadUsR+NZsnqZo/FTOKvvMbidxFnVhbYA+IzKGunsNyPcxVsyFAc33VgA3UtckXMB5AYaXBn1LPZ8ImNYdTdI6gogVnlaFcXgddBpFWoHK7LT7unBxYvPrC6qweWRvR38SBitXgB9xsINP08r/Ds4XXy3wrJ3YPjQ05jA4MrZC6Cbj5s+L4C+oeI8/zPZtB68DknJevAe7zRHyGDPyWnUobNPYAGEGXdOZDhPVTOdC4IsgFRM6Fw76bRmpJ0zgc5TFVnnSl8LIEkAncsunpYktgD8LFm3d+ds1wWQgNR+BMu/QReO62UugCRzd+45tgC6cPzw/jSHVK98RA9ry8jFA04rXryr7VEGu4bgeuYkfNXdSx5zju0wpODni7HRgycs1ofy5OdTqoY71w4Z9mb54OJVysQ6P7byOiCcC+OFRibXu7PyLQMPgb3iaKwprPVH4xYsXR8QLXlycnWrbdFQN3Z1vjd+j2pBuVZx/3RVvY1PcNdigI0bH3abT34JZHlILeN420XdGaK01kyp8Wv0ppXKG9trVoSpBolXViSfi2dVazLBV2W1GoCc/F+tHmvnmuMXRZyxvrcVV+X9XNQ3vwuEU9cBJY2VH60X65vA78iKNSoJ+izoDVm5apH1Oa5cqSlrOK8yhc3WNo4zCbNS5KjZkvUpYsvdanoXfqtuFYlL4IDU9X3rlPGOvKzv7t1Bbi/NGC/MT6xPfOGnlMn6lHOj+KStegq/T03qWC+sP0/db4V7B53q5Nt9DYnlarpA4XokFgfOgbdLk6GC5pKWHJ858GCvUXLDuIOVFc+8P089X0FX01P1c+bKJafyyRw4DtRpldnmPtRcTax/DuWfiV9kWHp40PjdbKTEj0UtzXbfaLBeh/L/xE1wDmsszfbCocmWicvxHMrf0oHGvGXPn3xerHTtyY+rrLXY9szifGpaLTeSPCyBjHthWhGok/mAy3NXpCv5YLwiz53UfLzMbw89vydXtzw8kS3Yn7q+7M+y/cOxCH/cgWzPdj87puxwjegsii872Jqi+jsyw0OZPD+OPtRl3NFzf2haDtN4S13iokeHOrwbRr4PLegVnXHhABwxPqwhBFr4h5UsR4PrsAZg6M84rCZ1oA7EvcXdlA5N8ikBuRBlw+2jrKUix6BPo6bsnTcmEhA7cfTwPeu8iMNOGh5hL6El0OdgZiTFLQczIzGzoJqlaoIUbAJhvCkgjEKouTXoqalzicMblpWOt6sFQ87ImJHLifOcjHtwlpPlGKMWS8acODVN9/vBiWnqeGc3gZmpB95NSff7wbkiut8PzpzS/f795nzPhE8izstUdai0I5M64LRA+frDHz99/fTtL7/8+ttvf3798vmfH//6/798/vLxH18+/+v3n7//05+ffvrj4/rb/wM=);fillColor=none;strokeColor=#007FFF;" vertex="1" parent="1">
                    <mxGeometry x="9" y="221.75" width="725.5" height="281.25" as="geometry"/>
                </mxCell>
                <mxCell id="100" value="" style="endArrow=classic;html=1;fontSize=15;fontColor=#FF0000;labelBorderColor=#FF0000;strokeColor=#FF0000;" edge="1" parent="1">
                    <mxGeometry width="50" height="50" relative="1" as="geometry">
                        <mxPoint x="440" y="88" as="sourcePoint"/>
                        <mxPoint x="500" y="65.5" as="targetPoint"/>
                    </mxGeometry>
                </mxCell>
                <mxCell id="101" value="稳定" style="text;html=1;align=center;verticalAlign=middle;resizable=0;points=[];autosize=1;fillColor=#FF0000;fontSize=16;" vertex="1" parent="1">
                    <mxGeometry x="495" y="50" width="50" height="20" as="geometry"/>
                </mxCell>
                <mxCell id="102" value="" style="endArrow=classic;html=1;fontSize=15;fontColor=#FF0000;labelBorderColor=#FF0000;strokeColor=#007FFF;" edge="1" parent="1">
                    <mxGeometry width="50" height="50" relative="1" as="geometry">
                        <mxPoint x="90" y="221.75" as="sourcePoint"/>
                        <mxPoint x="60" y="189.75" as="targetPoint"/>
                    </mxGeometry>
                </mxCell>
                <mxCell id="103" value="变化" style="text;html=1;align=center;verticalAlign=middle;resizable=0;points=[];autosize=1;fontSize=16;fillColor=#007FFF;" vertex="1" parent="1">
                    <mxGeometry x="40" y="170" width="50" height="20" as="geometry"/>
                </mxCell>
            </root>
        </mxGraphModel>
    </diagram>
</mxfile>